G75*
%MOIN*%
%OFA0B0*%
%FSLAX24Y24*%
%IPPOS*%
%LPD*%
%AMOC8*
5,1,8,0,0,1.08239X$1,22.5*
%
%ADD10R,1.9882X0.3642*%
%ADD11R,0.1378X0.0295*%
%ADD12R,0.5315X0.2559*%
%ADD13R,2.2835X0.3248*%
%ADD14R,0.2067X0.0492*%
%ADD15R,0.2657X0.0492*%
%ADD16R,0.6988X0.0492*%
%ADD17C,0.0049*%
%ADD18R,0.0433X0.0354*%
%ADD19C,0.0134*%
%ADD20C,0.0208*%
%ADD21C,0.0068*%
%ADD22R,0.0354X0.0433*%
%ADD23C,0.0039*%
%ADD24C,0.0053*%
%ADD25R,0.1024X0.1024*%
%ADD26R,0.0335X0.0256*%
%ADD27C,0.0057*%
%ADD28C,0.2402*%
%ADD29C,0.0128*%
%ADD30C,0.0047*%
%ADD31C,0.0031*%
%ADD32C,0.0150*%
%ADD33C,0.0110*%
%ADD34C,0.2087*%
%ADD35C,0.0075*%
%ADD36C,0.0630*%
%ADD37C,0.0295*%
%ADD38C,0.0453*%
%ADD39C,0.2480*%
%ADD40C,0.0394*%
D10*
X018614Y016891D03*
D11*
X018614Y014529D03*
X018614Y011281D03*
X014480Y010789D03*
X009952Y010789D03*
X022748Y010789D03*
X027275Y010789D03*
D12*
X018614Y008968D03*
D13*
X018614Y006065D03*
D14*
X027226Y014824D03*
X010002Y014824D03*
D15*
X022502Y014824D03*
D16*
X016891Y014824D03*
D17*
X016330Y020066D02*
X016134Y020066D01*
X016330Y020066D02*
X016330Y019760D01*
X016134Y019760D01*
X016134Y020066D01*
X016134Y019808D02*
X016330Y019808D01*
X016330Y019856D02*
X016134Y019856D01*
X016134Y019904D02*
X016330Y019904D01*
X016330Y019952D02*
X016134Y019952D01*
X016134Y020000D02*
X016330Y020000D01*
X016330Y020048D02*
X016134Y020048D01*
X015582Y020066D02*
X015386Y020066D01*
X015582Y020066D02*
X015582Y019760D01*
X015386Y019760D01*
X015386Y020066D01*
X015386Y019808D02*
X015582Y019808D01*
X015582Y019856D02*
X015386Y019856D01*
X015386Y019904D02*
X015582Y019904D01*
X015582Y019952D02*
X015386Y019952D01*
X015386Y020000D02*
X015582Y020000D01*
X015582Y020048D02*
X015386Y020048D01*
X015386Y021011D02*
X015582Y021011D01*
X015582Y020705D01*
X015386Y020705D01*
X015386Y021011D01*
X015386Y020753D02*
X015582Y020753D01*
X015582Y020801D02*
X015386Y020801D01*
X015386Y020849D02*
X015582Y020849D01*
X015582Y020897D02*
X015386Y020897D01*
X015386Y020945D02*
X015582Y020945D01*
X015582Y020993D02*
X015386Y020993D01*
X015760Y021011D02*
X015956Y021011D01*
X015956Y020705D01*
X015760Y020705D01*
X015760Y021011D01*
X015760Y020753D02*
X015956Y020753D01*
X015956Y020801D02*
X015760Y020801D01*
X015760Y020849D02*
X015956Y020849D01*
X015956Y020897D02*
X015760Y020897D01*
X015760Y020945D02*
X015956Y020945D01*
X015956Y020993D02*
X015760Y020993D01*
X016134Y021011D02*
X016330Y021011D01*
X016330Y020705D01*
X016134Y020705D01*
X016134Y021011D01*
X016134Y020753D02*
X016330Y020753D01*
X016330Y020801D02*
X016134Y020801D01*
X016134Y020849D02*
X016330Y020849D01*
X016330Y020897D02*
X016134Y020897D01*
X016134Y020945D02*
X016330Y020945D01*
X016330Y020993D02*
X016134Y020993D01*
D18*
X012905Y014637D03*
X012905Y013929D03*
X012905Y013259D03*
X012905Y012551D03*
X011527Y012551D03*
X011527Y013259D03*
X011527Y013929D03*
X011527Y014637D03*
X011527Y011291D03*
X011527Y010582D03*
X011527Y009913D03*
X011527Y009204D03*
X012905Y009204D03*
X012905Y009913D03*
X012905Y010582D03*
X012905Y011291D03*
X024322Y011291D03*
X024322Y010582D03*
X024322Y009913D03*
X024322Y009204D03*
X025700Y009204D03*
X025700Y009913D03*
X025700Y010582D03*
X025700Y011291D03*
X025700Y012551D03*
X025700Y013259D03*
X025700Y013929D03*
X025700Y014637D03*
X024322Y014637D03*
X024322Y013929D03*
X024322Y013259D03*
X024322Y012551D03*
D19*
X017166Y019646D02*
X017166Y020180D01*
X018094Y020180D01*
X018094Y019646D01*
X017166Y019646D01*
X017166Y019779D02*
X018094Y019779D01*
X018094Y019912D02*
X017166Y019912D01*
X017166Y020045D02*
X018094Y020045D01*
X018094Y020178D02*
X017166Y020178D01*
X017166Y020591D02*
X017166Y021125D01*
X018094Y021125D01*
X018094Y020591D01*
X017166Y020591D01*
X017166Y020724D02*
X018094Y020724D01*
X018094Y020857D02*
X017166Y020857D01*
X017166Y020990D02*
X018094Y020990D01*
X018094Y021123D02*
X017166Y021123D01*
D20*
X017215Y022205D02*
X018045Y022205D01*
X017215Y022205D02*
X017215Y023035D01*
X018045Y023035D01*
X018045Y022205D01*
X018045Y022412D02*
X017215Y022412D01*
X017215Y022619D02*
X018045Y022619D01*
X018045Y022826D02*
X017215Y022826D01*
X017215Y023033D02*
X018045Y023033D01*
D21*
X017395Y021829D02*
X017395Y021559D01*
X017395Y021829D02*
X017865Y021829D01*
X017865Y021559D01*
X017395Y021559D01*
X017395Y021626D02*
X017865Y021626D01*
X017865Y021693D02*
X017395Y021693D01*
X017395Y021760D02*
X017865Y021760D01*
X017865Y021827D02*
X017395Y021827D01*
D22*
X016448Y022748D03*
X015740Y022748D03*
D23*
X015720Y022038D02*
X015562Y022038D01*
X015562Y022276D01*
X015720Y022276D01*
X015720Y022038D01*
X015720Y022076D02*
X015562Y022076D01*
X015562Y022114D02*
X015720Y022114D01*
X015720Y022152D02*
X015562Y022152D01*
X015562Y022190D02*
X015720Y022190D01*
X015720Y022228D02*
X015562Y022228D01*
X015562Y022266D02*
X015720Y022266D01*
X015995Y022038D02*
X016153Y022038D01*
X015995Y022038D02*
X015995Y022276D01*
X016153Y022276D01*
X016153Y022038D01*
X016153Y022076D02*
X015995Y022076D01*
X015995Y022114D02*
X016153Y022114D01*
X016153Y022152D02*
X015995Y022152D01*
X015995Y022190D02*
X016153Y022190D01*
X016153Y022228D02*
X015995Y022228D01*
X015995Y022266D02*
X016153Y022266D01*
X016350Y022038D02*
X016508Y022038D01*
X016350Y022038D02*
X016350Y022276D01*
X016508Y022276D01*
X016508Y022038D01*
X016508Y022076D02*
X016350Y022076D01*
X016350Y022114D02*
X016508Y022114D01*
X016508Y022152D02*
X016350Y022152D01*
X016350Y022190D02*
X016508Y022190D01*
X016508Y022228D02*
X016350Y022228D01*
X016350Y022266D02*
X016508Y022266D01*
X016075Y021546D02*
X015917Y021546D01*
X015917Y021784D01*
X016075Y021784D01*
X016075Y021546D01*
X016075Y021584D02*
X015917Y021584D01*
X015917Y021622D02*
X016075Y021622D01*
X016075Y021660D02*
X015917Y021660D01*
X015917Y021698D02*
X016075Y021698D01*
X016075Y021736D02*
X015917Y021736D01*
X015917Y021774D02*
X016075Y021774D01*
X015720Y021546D02*
X015562Y021546D01*
X015562Y021784D01*
X015720Y021784D01*
X015720Y021546D01*
X015720Y021584D02*
X015562Y021584D01*
X015562Y021622D02*
X015720Y021622D01*
X015720Y021660D02*
X015562Y021660D01*
X015562Y021698D02*
X015720Y021698D01*
X015720Y021736D02*
X015562Y021736D01*
X015562Y021774D02*
X015720Y021774D01*
X015366Y022038D02*
X015208Y022038D01*
X015208Y022276D01*
X015366Y022276D01*
X015366Y022038D01*
X015366Y022076D02*
X015208Y022076D01*
X015208Y022114D02*
X015366Y022114D01*
X015366Y022152D02*
X015208Y022152D01*
X015208Y022190D02*
X015366Y022190D01*
X015366Y022228D02*
X015208Y022228D01*
X015208Y022266D02*
X015366Y022266D01*
X013555Y022274D02*
X013397Y022274D01*
X013397Y022512D01*
X013555Y022512D01*
X013555Y022274D01*
X013555Y022312D02*
X013397Y022312D01*
X013397Y022350D02*
X013555Y022350D01*
X013555Y022388D02*
X013397Y022388D01*
X013397Y022426D02*
X013555Y022426D01*
X013555Y022464D02*
X013397Y022464D01*
X013397Y022502D02*
X013555Y022502D01*
X013201Y022274D02*
X013043Y022274D01*
X013043Y022512D01*
X013201Y022512D01*
X013201Y022274D01*
X013201Y022312D02*
X013043Y022312D01*
X013043Y022350D02*
X013201Y022350D01*
X013201Y022388D02*
X013043Y022388D01*
X013043Y022426D02*
X013201Y022426D01*
X013201Y022464D02*
X013043Y022464D01*
X013043Y022502D02*
X013201Y022502D01*
X013201Y021841D02*
X013043Y021841D01*
X013043Y022079D01*
X013201Y022079D01*
X013201Y021841D01*
X013201Y021879D02*
X013043Y021879D01*
X013043Y021917D02*
X013201Y021917D01*
X013201Y021955D02*
X013043Y021955D01*
X013043Y021993D02*
X013201Y021993D01*
X013201Y022031D02*
X013043Y022031D01*
X013043Y022069D02*
X013201Y022069D01*
X013397Y021841D02*
X013555Y021841D01*
X013397Y021841D02*
X013397Y022079D01*
X013555Y022079D01*
X013555Y021841D01*
X013555Y021879D02*
X013397Y021879D01*
X013397Y021917D02*
X013555Y021917D01*
X013555Y021955D02*
X013397Y021955D01*
X013397Y021993D02*
X013555Y021993D01*
X013555Y022031D02*
X013397Y022031D01*
X013397Y022069D02*
X013555Y022069D01*
X013555Y021408D02*
X013397Y021408D01*
X013397Y021646D01*
X013555Y021646D01*
X013555Y021408D01*
X013555Y021446D02*
X013397Y021446D01*
X013397Y021484D02*
X013555Y021484D01*
X013555Y021522D02*
X013397Y021522D01*
X013397Y021560D02*
X013555Y021560D01*
X013555Y021598D02*
X013397Y021598D01*
X013397Y021636D02*
X013555Y021636D01*
X013201Y021408D02*
X013043Y021408D01*
X013043Y021646D01*
X013201Y021646D01*
X013201Y021408D01*
X013201Y021446D02*
X013043Y021446D01*
X013043Y021484D02*
X013201Y021484D01*
X013201Y021522D02*
X013043Y021522D01*
X013043Y021560D02*
X013201Y021560D01*
X013201Y021598D02*
X013043Y021598D01*
X013043Y021636D02*
X013201Y021636D01*
X012295Y020719D02*
X012137Y020719D01*
X012137Y020957D01*
X012295Y020957D01*
X012295Y020719D01*
X012295Y020757D02*
X012137Y020757D01*
X012137Y020795D02*
X012295Y020795D01*
X012295Y020833D02*
X012137Y020833D01*
X012137Y020871D02*
X012295Y020871D01*
X012295Y020909D02*
X012137Y020909D01*
X012137Y020947D02*
X012295Y020947D01*
X011941Y020719D02*
X011783Y020719D01*
X011783Y020957D01*
X011941Y020957D01*
X011941Y020719D01*
X011941Y020757D02*
X011783Y020757D01*
X011783Y020795D02*
X011941Y020795D01*
X011941Y020833D02*
X011783Y020833D01*
X011783Y020871D02*
X011941Y020871D01*
X011941Y020909D02*
X011783Y020909D01*
X011783Y020947D02*
X011941Y020947D01*
X011045Y020652D02*
X010887Y020652D01*
X011045Y020652D02*
X011045Y020414D01*
X010887Y020414D01*
X010887Y020652D01*
X010887Y020452D02*
X011045Y020452D01*
X011045Y020490D02*
X010887Y020490D01*
X010887Y020528D02*
X011045Y020528D01*
X011045Y020566D02*
X010887Y020566D01*
X010887Y020604D02*
X011045Y020604D01*
X011045Y020642D02*
X010887Y020642D01*
X010691Y020652D02*
X010533Y020652D01*
X010691Y020652D02*
X010691Y020414D01*
X010533Y020414D01*
X010533Y020652D01*
X010533Y020452D02*
X010691Y020452D01*
X010691Y020490D02*
X010533Y020490D01*
X010533Y020528D02*
X010691Y020528D01*
X010691Y020566D02*
X010533Y020566D01*
X010533Y020604D02*
X010691Y020604D01*
X010691Y020642D02*
X010533Y020642D01*
X009697Y020719D02*
X009539Y020719D01*
X009539Y020957D01*
X009697Y020957D01*
X009697Y020719D01*
X009697Y020757D02*
X009539Y020757D01*
X009539Y020795D02*
X009697Y020795D01*
X009697Y020833D02*
X009539Y020833D01*
X009539Y020871D02*
X009697Y020871D01*
X009697Y020909D02*
X009539Y020909D01*
X009539Y020947D02*
X009697Y020947D01*
X009342Y020719D02*
X009184Y020719D01*
X009184Y020957D01*
X009342Y020957D01*
X009342Y020719D01*
X009342Y020757D02*
X009184Y020757D01*
X009184Y020795D02*
X009342Y020795D01*
X009342Y020833D02*
X009184Y020833D01*
X009184Y020871D02*
X009342Y020871D01*
X009342Y020909D02*
X009184Y020909D01*
X009184Y020947D02*
X009342Y020947D01*
X020129Y021646D02*
X020287Y021646D01*
X020287Y021408D01*
X020129Y021408D01*
X020129Y021646D01*
X020129Y021446D02*
X020287Y021446D01*
X020287Y021484D02*
X020129Y021484D01*
X020129Y021522D02*
X020287Y021522D01*
X020287Y021560D02*
X020129Y021560D01*
X020129Y021598D02*
X020287Y021598D01*
X020287Y021636D02*
X020129Y021636D01*
X020129Y022079D02*
X020287Y022079D01*
X020287Y021841D01*
X020129Y021841D01*
X020129Y022079D01*
X020129Y021879D02*
X020287Y021879D01*
X020287Y021917D02*
X020129Y021917D01*
X020129Y021955D02*
X020287Y021955D01*
X020287Y021993D02*
X020129Y021993D01*
X020129Y022031D02*
X020287Y022031D01*
X020287Y022069D02*
X020129Y022069D01*
X020129Y022512D02*
X020287Y022512D01*
X020287Y022274D01*
X020129Y022274D01*
X020129Y022512D01*
X020129Y022312D02*
X020287Y022312D01*
X020287Y022350D02*
X020129Y022350D01*
X020129Y022388D02*
X020287Y022388D01*
X020287Y022426D02*
X020129Y022426D01*
X020129Y022464D02*
X020287Y022464D01*
X020287Y022502D02*
X020129Y022502D01*
X020484Y022512D02*
X020642Y022512D01*
X020642Y022274D01*
X020484Y022274D01*
X020484Y022512D01*
X020484Y022312D02*
X020642Y022312D01*
X020642Y022350D02*
X020484Y022350D01*
X020484Y022388D02*
X020642Y022388D01*
X020642Y022426D02*
X020484Y022426D01*
X020484Y022464D02*
X020642Y022464D01*
X020642Y022502D02*
X020484Y022502D01*
X020484Y022079D02*
X020642Y022079D01*
X020642Y021841D01*
X020484Y021841D01*
X020484Y022079D01*
X020484Y021879D02*
X020642Y021879D01*
X020642Y021917D02*
X020484Y021917D01*
X020484Y021955D02*
X020642Y021955D01*
X020642Y021993D02*
X020484Y021993D01*
X020484Y022031D02*
X020642Y022031D01*
X020642Y022069D02*
X020484Y022069D01*
X020484Y021646D02*
X020642Y021646D01*
X020642Y021408D01*
X020484Y021408D01*
X020484Y021646D01*
X020484Y021446D02*
X020642Y021446D01*
X020642Y021484D02*
X020484Y021484D01*
X020484Y021522D02*
X020642Y021522D01*
X020642Y021560D02*
X020484Y021560D01*
X020484Y021598D02*
X020642Y021598D01*
X020642Y021636D02*
X020484Y021636D01*
X021389Y020719D02*
X021547Y020719D01*
X021389Y020719D02*
X021389Y020957D01*
X021547Y020957D01*
X021547Y020719D01*
X021547Y020757D02*
X021389Y020757D01*
X021389Y020795D02*
X021547Y020795D01*
X021547Y020833D02*
X021389Y020833D01*
X021389Y020871D02*
X021547Y020871D01*
X021547Y020909D02*
X021389Y020909D01*
X021389Y020947D02*
X021547Y020947D01*
X021743Y020719D02*
X021901Y020719D01*
X021743Y020719D02*
X021743Y020957D01*
X021901Y020957D01*
X021901Y020719D01*
X021901Y020757D02*
X021743Y020757D01*
X021743Y020795D02*
X021901Y020795D01*
X021901Y020833D02*
X021743Y020833D01*
X021743Y020871D02*
X021901Y020871D01*
X021901Y020909D02*
X021743Y020909D01*
X021743Y020947D02*
X021901Y020947D01*
X022738Y020652D02*
X022896Y020652D01*
X022896Y020414D01*
X022738Y020414D01*
X022738Y020652D01*
X022738Y020452D02*
X022896Y020452D01*
X022896Y020490D02*
X022738Y020490D01*
X022738Y020528D02*
X022896Y020528D01*
X022896Y020566D02*
X022738Y020566D01*
X022738Y020604D02*
X022896Y020604D01*
X022896Y020642D02*
X022738Y020642D01*
X023092Y020652D02*
X023250Y020652D01*
X023250Y020414D01*
X023092Y020414D01*
X023092Y020652D01*
X023092Y020452D02*
X023250Y020452D01*
X023250Y020490D02*
X023092Y020490D01*
X023092Y020528D02*
X023250Y020528D01*
X023250Y020566D02*
X023092Y020566D01*
X023092Y020604D02*
X023250Y020604D01*
X023250Y020642D02*
X023092Y020642D01*
X023988Y020719D02*
X024146Y020719D01*
X023988Y020719D02*
X023988Y020957D01*
X024146Y020957D01*
X024146Y020719D01*
X024146Y020757D02*
X023988Y020757D01*
X023988Y020795D02*
X024146Y020795D01*
X024146Y020833D02*
X023988Y020833D01*
X023988Y020871D02*
X024146Y020871D01*
X024146Y020909D02*
X023988Y020909D01*
X023988Y020947D02*
X024146Y020947D01*
X024342Y020719D02*
X024500Y020719D01*
X024342Y020719D02*
X024342Y020957D01*
X024500Y020957D01*
X024500Y020719D01*
X024500Y020757D02*
X024342Y020757D01*
X024342Y020795D02*
X024500Y020795D01*
X024500Y020833D02*
X024342Y020833D01*
X024342Y020871D02*
X024500Y020871D01*
X024500Y020909D02*
X024342Y020909D01*
X024342Y020947D02*
X024500Y020947D01*
X026959Y020878D02*
X026959Y020720D01*
X026959Y020878D02*
X027197Y020878D01*
X027197Y020720D01*
X026959Y020720D01*
X026959Y020758D02*
X027197Y020758D01*
X027197Y020796D02*
X026959Y020796D01*
X026959Y020834D02*
X027197Y020834D01*
X027197Y020872D02*
X026959Y020872D01*
X026959Y021074D02*
X026959Y021232D01*
X027197Y021232D01*
X027197Y021074D01*
X026959Y021074D01*
X026959Y021112D02*
X027197Y021112D01*
X027197Y021150D02*
X026959Y021150D01*
X026959Y021188D02*
X027197Y021188D01*
X027197Y021226D02*
X026959Y021226D01*
D24*
X023871Y021442D02*
X023569Y021442D01*
X023871Y021442D02*
X023871Y021318D01*
X023569Y021318D01*
X023569Y021442D01*
X023569Y021370D02*
X023871Y021370D01*
X023871Y021422D02*
X023569Y021422D01*
X023569Y021697D02*
X023871Y021697D01*
X023871Y021573D01*
X023569Y021573D01*
X023569Y021697D01*
X023569Y021625D02*
X023871Y021625D01*
X023871Y021677D02*
X023569Y021677D01*
X023569Y021953D02*
X023871Y021953D01*
X023871Y021829D01*
X023569Y021829D01*
X023569Y021953D01*
X023569Y021881D02*
X023871Y021881D01*
X023871Y021933D02*
X023569Y021933D01*
X023569Y022209D02*
X023871Y022209D01*
X023871Y022085D01*
X023569Y022085D01*
X023569Y022209D01*
X023569Y022137D02*
X023871Y022137D01*
X023871Y022189D02*
X023569Y022189D01*
X023266Y022388D02*
X023266Y022690D01*
X023390Y022690D01*
X023390Y022388D01*
X023266Y022388D01*
X023266Y022440D02*
X023390Y022440D01*
X023390Y022492D02*
X023266Y022492D01*
X023266Y022544D02*
X023390Y022544D01*
X023390Y022596D02*
X023266Y022596D01*
X023266Y022648D02*
X023390Y022648D01*
X023010Y022690D02*
X023010Y022388D01*
X023010Y022690D02*
X023134Y022690D01*
X023134Y022388D01*
X023010Y022388D01*
X023010Y022440D02*
X023134Y022440D01*
X023134Y022492D02*
X023010Y022492D01*
X023010Y022544D02*
X023134Y022544D01*
X023134Y022596D02*
X023010Y022596D01*
X023010Y022648D02*
X023134Y022648D01*
X022755Y022690D02*
X022755Y022388D01*
X022755Y022690D02*
X022879Y022690D01*
X022879Y022388D01*
X022755Y022388D01*
X022755Y022440D02*
X022879Y022440D01*
X022879Y022492D02*
X022755Y022492D01*
X022755Y022544D02*
X022879Y022544D01*
X022879Y022596D02*
X022755Y022596D01*
X022755Y022648D02*
X022879Y022648D01*
X022499Y022690D02*
X022499Y022388D01*
X022499Y022690D02*
X022623Y022690D01*
X022623Y022388D01*
X022499Y022388D01*
X022499Y022440D02*
X022623Y022440D01*
X022623Y022492D02*
X022499Y022492D01*
X022499Y022544D02*
X022623Y022544D01*
X022623Y022596D02*
X022499Y022596D01*
X022499Y022648D02*
X022623Y022648D01*
X022320Y022085D02*
X022018Y022085D01*
X022018Y022209D01*
X022320Y022209D01*
X022320Y022085D01*
X022320Y022137D02*
X022018Y022137D01*
X022018Y022189D02*
X022320Y022189D01*
X022320Y021829D02*
X022018Y021829D01*
X022018Y021953D01*
X022320Y021953D01*
X022320Y021829D01*
X022320Y021881D02*
X022018Y021881D01*
X022018Y021933D02*
X022320Y021933D01*
X022320Y021573D02*
X022018Y021573D01*
X022018Y021697D01*
X022320Y021697D01*
X022320Y021573D01*
X022320Y021625D02*
X022018Y021625D01*
X022018Y021677D02*
X022320Y021677D01*
X022320Y021318D02*
X022018Y021318D01*
X022018Y021442D01*
X022320Y021442D01*
X022320Y021318D01*
X022320Y021370D02*
X022018Y021370D01*
X022018Y021422D02*
X022320Y021422D01*
X022623Y021139D02*
X022623Y020837D01*
X022499Y020837D01*
X022499Y021139D01*
X022623Y021139D01*
X022623Y020889D02*
X022499Y020889D01*
X022499Y020941D02*
X022623Y020941D01*
X022623Y020993D02*
X022499Y020993D01*
X022499Y021045D02*
X022623Y021045D01*
X022623Y021097D02*
X022499Y021097D01*
X022879Y021139D02*
X022879Y020837D01*
X022755Y020837D01*
X022755Y021139D01*
X022879Y021139D01*
X022879Y020889D02*
X022755Y020889D01*
X022755Y020941D02*
X022879Y020941D01*
X022879Y020993D02*
X022755Y020993D01*
X022755Y021045D02*
X022879Y021045D01*
X022879Y021097D02*
X022755Y021097D01*
X023134Y021139D02*
X023134Y020837D01*
X023010Y020837D01*
X023010Y021139D01*
X023134Y021139D01*
X023134Y020889D02*
X023010Y020889D01*
X023010Y020941D02*
X023134Y020941D01*
X023134Y020993D02*
X023010Y020993D01*
X023010Y021045D02*
X023134Y021045D01*
X023134Y021097D02*
X023010Y021097D01*
X023390Y021139D02*
X023390Y020837D01*
X023266Y020837D01*
X023266Y021139D01*
X023390Y021139D01*
X023390Y020889D02*
X023266Y020889D01*
X023266Y020941D02*
X023390Y020941D01*
X023390Y020993D02*
X023266Y020993D01*
X023266Y021045D02*
X023390Y021045D01*
X023390Y021097D02*
X023266Y021097D01*
X011666Y021442D02*
X011364Y021442D01*
X011666Y021442D02*
X011666Y021318D01*
X011364Y021318D01*
X011364Y021442D01*
X011364Y021370D02*
X011666Y021370D01*
X011666Y021422D02*
X011364Y021422D01*
X011364Y021697D02*
X011666Y021697D01*
X011666Y021573D01*
X011364Y021573D01*
X011364Y021697D01*
X011364Y021625D02*
X011666Y021625D01*
X011666Y021677D02*
X011364Y021677D01*
X011364Y021953D02*
X011666Y021953D01*
X011666Y021829D01*
X011364Y021829D01*
X011364Y021953D01*
X011364Y021881D02*
X011666Y021881D01*
X011666Y021933D02*
X011364Y021933D01*
X011364Y022209D02*
X011666Y022209D01*
X011666Y022085D01*
X011364Y022085D01*
X011364Y022209D01*
X011364Y022137D02*
X011666Y022137D01*
X011666Y022189D02*
X011364Y022189D01*
X011062Y022388D02*
X011062Y022690D01*
X011186Y022690D01*
X011186Y022388D01*
X011062Y022388D01*
X011062Y022440D02*
X011186Y022440D01*
X011186Y022492D02*
X011062Y022492D01*
X011062Y022544D02*
X011186Y022544D01*
X011186Y022596D02*
X011062Y022596D01*
X011062Y022648D02*
X011186Y022648D01*
X010806Y022690D02*
X010806Y022388D01*
X010806Y022690D02*
X010930Y022690D01*
X010930Y022388D01*
X010806Y022388D01*
X010806Y022440D02*
X010930Y022440D01*
X010930Y022492D02*
X010806Y022492D01*
X010806Y022544D02*
X010930Y022544D01*
X010930Y022596D02*
X010806Y022596D01*
X010806Y022648D02*
X010930Y022648D01*
X010550Y022690D02*
X010550Y022388D01*
X010550Y022690D02*
X010674Y022690D01*
X010674Y022388D01*
X010550Y022388D01*
X010550Y022440D02*
X010674Y022440D01*
X010674Y022492D02*
X010550Y022492D01*
X010550Y022544D02*
X010674Y022544D01*
X010674Y022596D02*
X010550Y022596D01*
X010550Y022648D02*
X010674Y022648D01*
X010294Y022690D02*
X010294Y022388D01*
X010294Y022690D02*
X010418Y022690D01*
X010418Y022388D01*
X010294Y022388D01*
X010294Y022440D02*
X010418Y022440D01*
X010418Y022492D02*
X010294Y022492D01*
X010294Y022544D02*
X010418Y022544D01*
X010418Y022596D02*
X010294Y022596D01*
X010294Y022648D02*
X010418Y022648D01*
X010115Y022085D02*
X009813Y022085D01*
X009813Y022209D01*
X010115Y022209D01*
X010115Y022085D01*
X010115Y022137D02*
X009813Y022137D01*
X009813Y022189D02*
X010115Y022189D01*
X010115Y021829D02*
X009813Y021829D01*
X009813Y021953D01*
X010115Y021953D01*
X010115Y021829D01*
X010115Y021881D02*
X009813Y021881D01*
X009813Y021933D02*
X010115Y021933D01*
X010115Y021573D02*
X009813Y021573D01*
X009813Y021697D01*
X010115Y021697D01*
X010115Y021573D01*
X010115Y021625D02*
X009813Y021625D01*
X009813Y021677D02*
X010115Y021677D01*
X010115Y021318D02*
X009813Y021318D01*
X009813Y021442D01*
X010115Y021442D01*
X010115Y021318D01*
X010115Y021370D02*
X009813Y021370D01*
X009813Y021422D02*
X010115Y021422D01*
X010418Y021139D02*
X010418Y020837D01*
X010294Y020837D01*
X010294Y021139D01*
X010418Y021139D01*
X010418Y020889D02*
X010294Y020889D01*
X010294Y020941D02*
X010418Y020941D01*
X010418Y020993D02*
X010294Y020993D01*
X010294Y021045D02*
X010418Y021045D01*
X010418Y021097D02*
X010294Y021097D01*
X010674Y021139D02*
X010674Y020837D01*
X010550Y020837D01*
X010550Y021139D01*
X010674Y021139D01*
X010674Y020889D02*
X010550Y020889D01*
X010550Y020941D02*
X010674Y020941D01*
X010674Y020993D02*
X010550Y020993D01*
X010550Y021045D02*
X010674Y021045D01*
X010674Y021097D02*
X010550Y021097D01*
X010930Y021139D02*
X010930Y020837D01*
X010806Y020837D01*
X010806Y021139D01*
X010930Y021139D01*
X010930Y020889D02*
X010806Y020889D01*
X010806Y020941D02*
X010930Y020941D01*
X010930Y020993D02*
X010806Y020993D01*
X010806Y021045D02*
X010930Y021045D01*
X010930Y021097D02*
X010806Y021097D01*
X011186Y021139D02*
X011186Y020837D01*
X011062Y020837D01*
X011062Y021139D01*
X011186Y021139D01*
X011186Y020889D02*
X011062Y020889D01*
X011062Y020941D02*
X011186Y020941D01*
X011186Y020993D02*
X011062Y020993D01*
X011062Y021045D02*
X011186Y021045D01*
X011186Y021097D02*
X011062Y021097D01*
D25*
X010740Y021763D03*
X022944Y021763D03*
D26*
X021468Y021891D03*
X021468Y021340D03*
X022059Y022866D03*
X022059Y023417D03*
X024421Y021891D03*
X024421Y021340D03*
X020779Y014657D03*
X020779Y014106D03*
X012216Y021340D03*
X012216Y021891D03*
X011626Y022866D03*
X011626Y023417D03*
X009263Y021891D03*
X009263Y021340D03*
D27*
X009418Y022194D02*
X009418Y022424D01*
X009418Y022194D02*
X009108Y022194D01*
X009108Y022424D01*
X009418Y022424D01*
X009418Y022250D02*
X009108Y022250D01*
X009108Y022306D02*
X009418Y022306D01*
X009418Y022362D02*
X009108Y022362D01*
X009108Y022418D02*
X009418Y022418D01*
X009418Y023072D02*
X009418Y023302D01*
X009418Y023072D02*
X009108Y023072D01*
X009108Y023302D01*
X009418Y023302D01*
X009418Y023128D02*
X009108Y023128D01*
X009108Y023184D02*
X009418Y023184D01*
X009418Y023240D02*
X009108Y023240D01*
X009108Y023296D02*
X009418Y023296D01*
X012371Y023302D02*
X012371Y023072D01*
X012061Y023072D01*
X012061Y023302D01*
X012371Y023302D01*
X012371Y023128D02*
X012061Y023128D01*
X012061Y023184D02*
X012371Y023184D01*
X012371Y023240D02*
X012061Y023240D01*
X012061Y023296D02*
X012371Y023296D01*
X012371Y022424D02*
X012371Y022194D01*
X012061Y022194D01*
X012061Y022424D01*
X012371Y022424D01*
X012371Y022250D02*
X012061Y022250D01*
X012061Y022306D02*
X012371Y022306D01*
X012371Y022362D02*
X012061Y022362D01*
X012061Y022418D02*
X012371Y022418D01*
X021623Y022424D02*
X021623Y022194D01*
X021313Y022194D01*
X021313Y022424D01*
X021623Y022424D01*
X021623Y022250D02*
X021313Y022250D01*
X021313Y022306D02*
X021623Y022306D01*
X021623Y022362D02*
X021313Y022362D01*
X021313Y022418D02*
X021623Y022418D01*
X021623Y023072D02*
X021623Y023302D01*
X021623Y023072D02*
X021313Y023072D01*
X021313Y023302D01*
X021623Y023302D01*
X021623Y023128D02*
X021313Y023128D01*
X021313Y023184D02*
X021623Y023184D01*
X021623Y023240D02*
X021313Y023240D01*
X021313Y023296D02*
X021623Y023296D01*
X024576Y023302D02*
X024576Y023072D01*
X024266Y023072D01*
X024266Y023302D01*
X024576Y023302D01*
X024576Y023128D02*
X024266Y023128D01*
X024266Y023184D02*
X024576Y023184D01*
X024576Y023240D02*
X024266Y023240D01*
X024266Y023296D02*
X024576Y023296D01*
X024576Y022424D02*
X024576Y022194D01*
X024266Y022194D01*
X024266Y022424D01*
X024576Y022424D01*
X024576Y022250D02*
X024266Y022250D01*
X024266Y022306D02*
X024576Y022306D01*
X024576Y022362D02*
X024266Y022362D01*
X024266Y022418D02*
X024576Y022418D01*
D28*
X005622Y005425D03*
X009952Y011921D03*
X014480Y011921D03*
X022748Y011921D03*
X027275Y011921D03*
X031606Y005425D03*
X031606Y023535D03*
X005622Y023535D03*
D29*
X019199Y014341D02*
X019199Y013831D01*
X018029Y013831D01*
X018029Y014341D01*
X019199Y014341D01*
X019199Y013958D02*
X018029Y013958D01*
X018029Y014085D02*
X019199Y014085D01*
X019199Y014212D02*
X018029Y014212D01*
X018029Y014339D02*
X019199Y014339D01*
X019199Y011979D02*
X019199Y011469D01*
X018029Y011469D01*
X018029Y011979D01*
X019199Y011979D01*
X019199Y011596D02*
X018029Y011596D01*
X018029Y011723D02*
X019199Y011723D01*
X019199Y011850D02*
X018029Y011850D01*
X018029Y011977D02*
X019199Y011977D01*
X023333Y010601D02*
X023333Y010091D01*
X022163Y010091D01*
X022163Y010601D01*
X023333Y010601D01*
X023333Y010218D02*
X022163Y010218D01*
X022163Y010345D02*
X023333Y010345D01*
X023333Y010472D02*
X022163Y010472D01*
X022163Y010599D02*
X023333Y010599D01*
X023333Y008239D02*
X023333Y007729D01*
X022163Y007729D01*
X022163Y008239D01*
X023333Y008239D01*
X023333Y007856D02*
X022163Y007856D01*
X022163Y007983D02*
X023333Y007983D01*
X023333Y008110D02*
X022163Y008110D01*
X022163Y008237D02*
X023333Y008237D01*
X027860Y008239D02*
X027860Y007729D01*
X026690Y007729D01*
X026690Y008239D01*
X027860Y008239D01*
X027860Y007856D02*
X026690Y007856D01*
X026690Y007983D02*
X027860Y007983D01*
X027860Y008110D02*
X026690Y008110D01*
X026690Y008237D02*
X027860Y008237D01*
X027860Y010091D02*
X027860Y010601D01*
X027860Y010091D02*
X026690Y010091D01*
X026690Y010601D01*
X027860Y010601D01*
X027860Y010218D02*
X026690Y010218D01*
X026690Y010345D02*
X027860Y010345D01*
X027860Y010472D02*
X026690Y010472D01*
X026690Y010599D02*
X027860Y010599D01*
X015065Y010601D02*
X015065Y010091D01*
X013895Y010091D01*
X013895Y010601D01*
X015065Y010601D01*
X015065Y010218D02*
X013895Y010218D01*
X013895Y010345D02*
X015065Y010345D01*
X015065Y010472D02*
X013895Y010472D01*
X013895Y010599D02*
X015065Y010599D01*
X015065Y008239D02*
X015065Y007729D01*
X013895Y007729D01*
X013895Y008239D01*
X015065Y008239D01*
X015065Y007856D02*
X013895Y007856D01*
X013895Y007983D02*
X015065Y007983D01*
X015065Y008110D02*
X013895Y008110D01*
X013895Y008237D02*
X015065Y008237D01*
X010537Y008239D02*
X010537Y007729D01*
X009367Y007729D01*
X009367Y008239D01*
X010537Y008239D01*
X010537Y007856D02*
X009367Y007856D01*
X009367Y007983D02*
X010537Y007983D01*
X010537Y008110D02*
X009367Y008110D01*
X009367Y008237D02*
X010537Y008237D01*
X010537Y010091D02*
X010537Y010601D01*
X010537Y010091D02*
X009367Y010091D01*
X009367Y010601D01*
X010537Y010601D01*
X010537Y010218D02*
X009367Y010218D01*
X009367Y010345D02*
X010537Y010345D01*
X010537Y010472D02*
X009367Y010472D01*
X009367Y010599D02*
X010537Y010599D01*
D30*
X009661Y019425D02*
X009661Y019693D01*
X009851Y019693D01*
X009851Y019425D01*
X009661Y019425D01*
X009661Y019471D02*
X009851Y019471D01*
X009851Y019517D02*
X009661Y019517D01*
X009661Y019563D02*
X009851Y019563D01*
X009851Y019609D02*
X009661Y019609D01*
X009661Y019655D02*
X009851Y019655D01*
X009661Y020291D02*
X009661Y020559D01*
X009851Y020559D01*
X009851Y020291D01*
X009661Y020291D01*
X009661Y020337D02*
X009851Y020337D01*
X009851Y020383D02*
X009661Y020383D01*
X009661Y020429D02*
X009851Y020429D01*
X009851Y020475D02*
X009661Y020475D01*
X009661Y020521D02*
X009851Y020521D01*
X011639Y020559D02*
X011639Y020291D01*
X011639Y020559D02*
X011829Y020559D01*
X011829Y020291D01*
X011639Y020291D01*
X011639Y020337D02*
X011829Y020337D01*
X011829Y020383D02*
X011639Y020383D01*
X011639Y020429D02*
X011829Y020429D01*
X011829Y020475D02*
X011639Y020475D01*
X011639Y020521D02*
X011829Y020521D01*
X011639Y019693D02*
X011639Y019425D01*
X011639Y019693D02*
X011829Y019693D01*
X011829Y019425D01*
X011639Y019425D01*
X011639Y019471D02*
X011829Y019471D01*
X011829Y019517D02*
X011639Y019517D01*
X011639Y019563D02*
X011829Y019563D01*
X011829Y019609D02*
X011639Y019609D01*
X011639Y019655D02*
X011829Y019655D01*
X021865Y019693D02*
X021865Y019425D01*
X021865Y019693D02*
X022055Y019693D01*
X022055Y019425D01*
X021865Y019425D01*
X021865Y019471D02*
X022055Y019471D01*
X022055Y019517D02*
X021865Y019517D01*
X021865Y019563D02*
X022055Y019563D01*
X022055Y019609D02*
X021865Y019609D01*
X021865Y019655D02*
X022055Y019655D01*
X021865Y020291D02*
X021865Y020559D01*
X022055Y020559D01*
X022055Y020291D01*
X021865Y020291D01*
X021865Y020337D02*
X022055Y020337D01*
X022055Y020383D02*
X021865Y020383D01*
X021865Y020429D02*
X022055Y020429D01*
X022055Y020475D02*
X021865Y020475D01*
X021865Y020521D02*
X022055Y020521D01*
X023834Y020559D02*
X023834Y020291D01*
X023834Y020559D02*
X024024Y020559D01*
X024024Y020291D01*
X023834Y020291D01*
X023834Y020337D02*
X024024Y020337D01*
X024024Y020383D02*
X023834Y020383D01*
X023834Y020429D02*
X024024Y020429D01*
X024024Y020475D02*
X023834Y020475D01*
X023834Y020521D02*
X024024Y020521D01*
X023834Y019693D02*
X023834Y019425D01*
X023834Y019693D02*
X024024Y019693D01*
X024024Y019425D01*
X023834Y019425D01*
X023834Y019471D02*
X024024Y019471D01*
X024024Y019517D02*
X023834Y019517D01*
X023834Y019563D02*
X024024Y019563D01*
X024024Y019609D02*
X023834Y019609D01*
X023834Y019655D02*
X024024Y019655D01*
D31*
X019878Y021641D02*
X019878Y021767D01*
X019878Y021641D02*
X019672Y021641D01*
X019672Y021767D01*
X019878Y021767D01*
X019878Y021671D02*
X019672Y021671D01*
X019672Y021701D02*
X019878Y021701D01*
X019878Y021731D02*
X019672Y021731D01*
X019672Y021761D02*
X019878Y021761D01*
X019878Y021897D02*
X019878Y022023D01*
X019878Y021897D02*
X019672Y021897D01*
X019672Y022023D01*
X019878Y022023D01*
X019878Y021927D02*
X019672Y021927D01*
X019672Y021957D02*
X019878Y021957D01*
X019878Y021987D02*
X019672Y021987D01*
X019672Y022017D02*
X019878Y022017D01*
X019878Y022153D02*
X019878Y022279D01*
X019878Y022153D02*
X019672Y022153D01*
X019672Y022279D01*
X019878Y022279D01*
X019878Y022183D02*
X019672Y022183D01*
X019672Y022213D02*
X019878Y022213D01*
X019878Y022243D02*
X019672Y022243D01*
X019672Y022273D02*
X019878Y022273D01*
X018924Y022279D02*
X018924Y022153D01*
X018924Y022279D02*
X019130Y022279D01*
X019130Y022153D01*
X018924Y022153D01*
X018924Y022183D02*
X019130Y022183D01*
X019130Y022213D02*
X018924Y022213D01*
X018924Y022243D02*
X019130Y022243D01*
X019130Y022273D02*
X018924Y022273D01*
X018924Y022023D02*
X018924Y021897D01*
X018924Y022023D02*
X019130Y022023D01*
X019130Y021897D01*
X018924Y021897D01*
X018924Y021927D02*
X019130Y021927D01*
X019130Y021957D02*
X018924Y021957D01*
X018924Y021987D02*
X019130Y021987D01*
X019130Y022017D02*
X018924Y022017D01*
X018924Y021767D02*
X018924Y021641D01*
X018924Y021767D02*
X019130Y021767D01*
X019130Y021641D01*
X018924Y021641D01*
X018924Y021671D02*
X019130Y021671D01*
X019130Y021701D02*
X018924Y021701D01*
X018924Y021731D02*
X019130Y021731D01*
X019130Y021761D02*
X018924Y021761D01*
X014760Y021767D02*
X014760Y021641D01*
X014554Y021641D01*
X014554Y021767D01*
X014760Y021767D01*
X014760Y021671D02*
X014554Y021671D01*
X014554Y021701D02*
X014760Y021701D01*
X014760Y021731D02*
X014554Y021731D01*
X014554Y021761D02*
X014760Y021761D01*
X014760Y021897D02*
X014760Y022023D01*
X014760Y021897D02*
X014554Y021897D01*
X014554Y022023D01*
X014760Y022023D01*
X014760Y021927D02*
X014554Y021927D01*
X014554Y021957D02*
X014760Y021957D01*
X014760Y021987D02*
X014554Y021987D01*
X014554Y022017D02*
X014760Y022017D01*
X014760Y022153D02*
X014760Y022279D01*
X014760Y022153D02*
X014554Y022153D01*
X014554Y022279D01*
X014760Y022279D01*
X014760Y022183D02*
X014554Y022183D01*
X014554Y022213D02*
X014760Y022213D01*
X014760Y022243D02*
X014554Y022243D01*
X014554Y022273D02*
X014760Y022273D01*
X013806Y022279D02*
X013806Y022153D01*
X013806Y022279D02*
X014012Y022279D01*
X014012Y022153D01*
X013806Y022153D01*
X013806Y022183D02*
X014012Y022183D01*
X014012Y022213D02*
X013806Y022213D01*
X013806Y022243D02*
X014012Y022243D01*
X014012Y022273D02*
X013806Y022273D01*
X013806Y022023D02*
X013806Y021897D01*
X013806Y022023D02*
X014012Y022023D01*
X014012Y021897D01*
X013806Y021897D01*
X013806Y021927D02*
X014012Y021927D01*
X014012Y021957D02*
X013806Y021957D01*
X013806Y021987D02*
X014012Y021987D01*
X014012Y022017D02*
X013806Y022017D01*
X013806Y021767D02*
X013806Y021641D01*
X013806Y021767D02*
X014012Y021767D01*
X014012Y021641D01*
X013806Y021641D01*
X013806Y021671D02*
X014012Y021671D01*
X014012Y021701D02*
X013806Y021701D01*
X013806Y021731D02*
X014012Y021731D01*
X014012Y021761D02*
X013806Y021761D01*
D32*
X007626Y018421D02*
X007626Y017823D01*
X007626Y018421D02*
X008972Y018421D01*
X008972Y017823D01*
X007626Y017823D01*
X007626Y017972D02*
X008972Y017972D01*
X008972Y018121D02*
X007626Y018121D01*
X007626Y018270D02*
X008972Y018270D01*
X008972Y018419D02*
X007626Y018419D01*
X005027Y018421D02*
X005027Y017823D01*
X005027Y018421D02*
X006373Y018421D01*
X006373Y017823D01*
X005027Y017823D01*
X005027Y017972D02*
X006373Y017972D01*
X006373Y018121D02*
X005027Y018121D01*
X005027Y018270D02*
X006373Y018270D01*
X006373Y018419D02*
X005027Y018419D01*
X005027Y015074D02*
X005027Y014476D01*
X005027Y015074D02*
X006373Y015074D01*
X006373Y014476D01*
X005027Y014476D01*
X005027Y014625D02*
X006373Y014625D01*
X006373Y014774D02*
X005027Y014774D01*
X005027Y014923D02*
X006373Y014923D01*
X006373Y015072D02*
X005027Y015072D01*
X007626Y015074D02*
X007626Y014476D01*
X007626Y015074D02*
X008972Y015074D01*
X008972Y014476D01*
X007626Y014476D01*
X007626Y014625D02*
X008972Y014625D01*
X008972Y014774D02*
X007626Y014774D01*
X007626Y014923D02*
X008972Y014923D01*
X008972Y015072D02*
X007626Y015072D01*
X029602Y015074D02*
X029602Y014476D01*
X028256Y014476D01*
X028256Y015074D01*
X029602Y015074D01*
X029602Y014625D02*
X028256Y014625D01*
X028256Y014774D02*
X029602Y014774D01*
X029602Y014923D02*
X028256Y014923D01*
X028256Y015072D02*
X029602Y015072D01*
X032200Y015074D02*
X032200Y014476D01*
X030854Y014476D01*
X030854Y015074D01*
X032200Y015074D01*
X032200Y014625D02*
X030854Y014625D01*
X030854Y014774D02*
X032200Y014774D01*
X032200Y014923D02*
X030854Y014923D01*
X030854Y015072D02*
X032200Y015072D01*
X032200Y017823D02*
X032200Y018421D01*
X032200Y017823D02*
X030854Y017823D01*
X030854Y018421D01*
X032200Y018421D01*
X032200Y017972D02*
X030854Y017972D01*
X030854Y018121D02*
X032200Y018121D01*
X032200Y018270D02*
X030854Y018270D01*
X030854Y018419D02*
X032200Y018419D01*
X029602Y018421D02*
X029602Y017823D01*
X028256Y017823D01*
X028256Y018421D01*
X029602Y018421D01*
X029602Y017972D02*
X028256Y017972D01*
X028256Y018121D02*
X029602Y018121D01*
X029602Y018270D02*
X028256Y018270D01*
X028256Y018419D02*
X029602Y018419D01*
D33*
X029129Y019012D02*
X028689Y019012D01*
X029129Y019012D02*
X029129Y017232D01*
X028689Y017232D01*
X028689Y019012D01*
X028689Y017341D02*
X029129Y017341D01*
X029129Y017450D02*
X028689Y017450D01*
X028689Y017559D02*
X029129Y017559D01*
X029129Y017668D02*
X028689Y017668D01*
X028689Y017777D02*
X029129Y017777D01*
X029129Y017886D02*
X028689Y017886D01*
X028689Y017995D02*
X029129Y017995D01*
X029129Y018104D02*
X028689Y018104D01*
X028689Y018213D02*
X029129Y018213D01*
X029129Y018322D02*
X028689Y018322D01*
X028689Y018431D02*
X029129Y018431D01*
X029129Y018540D02*
X028689Y018540D01*
X028689Y018649D02*
X029129Y018649D01*
X029129Y018758D02*
X028689Y018758D01*
X028689Y018867D02*
X029129Y018867D01*
X029129Y018976D02*
X028689Y018976D01*
X031327Y019012D02*
X031767Y019012D01*
X031767Y017232D01*
X031327Y017232D01*
X031327Y019012D01*
X031327Y017341D02*
X031767Y017341D01*
X031767Y017450D02*
X031327Y017450D01*
X031327Y017559D02*
X031767Y017559D01*
X031767Y017668D02*
X031327Y017668D01*
X031327Y017777D02*
X031767Y017777D01*
X031767Y017886D02*
X031327Y017886D01*
X031327Y017995D02*
X031767Y017995D01*
X031767Y018104D02*
X031327Y018104D01*
X031327Y018213D02*
X031767Y018213D01*
X031767Y018322D02*
X031327Y018322D01*
X031327Y018431D02*
X031767Y018431D01*
X031767Y018540D02*
X031327Y018540D01*
X031327Y018649D02*
X031767Y018649D01*
X031767Y018758D02*
X031327Y018758D01*
X031327Y018867D02*
X031767Y018867D01*
X031767Y018976D02*
X031327Y018976D01*
X031327Y015665D02*
X031767Y015665D01*
X031767Y013885D01*
X031327Y013885D01*
X031327Y015665D01*
X031327Y013994D02*
X031767Y013994D01*
X031767Y014103D02*
X031327Y014103D01*
X031327Y014212D02*
X031767Y014212D01*
X031767Y014321D02*
X031327Y014321D01*
X031327Y014430D02*
X031767Y014430D01*
X031767Y014539D02*
X031327Y014539D01*
X031327Y014648D02*
X031767Y014648D01*
X031767Y014757D02*
X031327Y014757D01*
X031327Y014866D02*
X031767Y014866D01*
X031767Y014975D02*
X031327Y014975D01*
X031327Y015084D02*
X031767Y015084D01*
X031767Y015193D02*
X031327Y015193D01*
X031327Y015302D02*
X031767Y015302D01*
X031767Y015411D02*
X031327Y015411D01*
X031327Y015520D02*
X031767Y015520D01*
X031767Y015629D02*
X031327Y015629D01*
X029129Y015665D02*
X028689Y015665D01*
X029129Y015665D02*
X029129Y013885D01*
X028689Y013885D01*
X028689Y015665D01*
X028689Y013994D02*
X029129Y013994D01*
X029129Y014103D02*
X028689Y014103D01*
X028689Y014212D02*
X029129Y014212D01*
X029129Y014321D02*
X028689Y014321D01*
X028689Y014430D02*
X029129Y014430D01*
X029129Y014539D02*
X028689Y014539D01*
X028689Y014648D02*
X029129Y014648D01*
X029129Y014757D02*
X028689Y014757D01*
X028689Y014866D02*
X029129Y014866D01*
X029129Y014975D02*
X028689Y014975D01*
X028689Y015084D02*
X029129Y015084D01*
X029129Y015193D02*
X028689Y015193D01*
X028689Y015302D02*
X029129Y015302D01*
X029129Y015411D02*
X028689Y015411D01*
X028689Y015520D02*
X029129Y015520D01*
X029129Y015629D02*
X028689Y015629D01*
X008539Y013885D02*
X008099Y013885D01*
X008099Y015665D01*
X008539Y015665D01*
X008539Y013885D01*
X008539Y013994D02*
X008099Y013994D01*
X008099Y014103D02*
X008539Y014103D01*
X008539Y014212D02*
X008099Y014212D01*
X008099Y014321D02*
X008539Y014321D01*
X008539Y014430D02*
X008099Y014430D01*
X008099Y014539D02*
X008539Y014539D01*
X008539Y014648D02*
X008099Y014648D01*
X008099Y014757D02*
X008539Y014757D01*
X008539Y014866D02*
X008099Y014866D01*
X008099Y014975D02*
X008539Y014975D01*
X008539Y015084D02*
X008099Y015084D01*
X008099Y015193D02*
X008539Y015193D01*
X008539Y015302D02*
X008099Y015302D01*
X008099Y015411D02*
X008539Y015411D01*
X008539Y015520D02*
X008099Y015520D01*
X008099Y015629D02*
X008539Y015629D01*
X008539Y017232D02*
X008099Y017232D01*
X008099Y019012D01*
X008539Y019012D01*
X008539Y017232D01*
X008539Y017341D02*
X008099Y017341D01*
X008099Y017450D02*
X008539Y017450D01*
X008539Y017559D02*
X008099Y017559D01*
X008099Y017668D02*
X008539Y017668D01*
X008539Y017777D02*
X008099Y017777D01*
X008099Y017886D02*
X008539Y017886D01*
X008539Y017995D02*
X008099Y017995D01*
X008099Y018104D02*
X008539Y018104D01*
X008539Y018213D02*
X008099Y018213D01*
X008099Y018322D02*
X008539Y018322D01*
X008539Y018431D02*
X008099Y018431D01*
X008099Y018540D02*
X008539Y018540D01*
X008539Y018649D02*
X008099Y018649D01*
X008099Y018758D02*
X008539Y018758D01*
X008539Y018867D02*
X008099Y018867D01*
X008099Y018976D02*
X008539Y018976D01*
X005901Y017232D02*
X005461Y017232D01*
X005461Y019012D01*
X005901Y019012D01*
X005901Y017232D01*
X005901Y017341D02*
X005461Y017341D01*
X005461Y017450D02*
X005901Y017450D01*
X005901Y017559D02*
X005461Y017559D01*
X005461Y017668D02*
X005901Y017668D01*
X005901Y017777D02*
X005461Y017777D01*
X005461Y017886D02*
X005901Y017886D01*
X005901Y017995D02*
X005461Y017995D01*
X005461Y018104D02*
X005901Y018104D01*
X005901Y018213D02*
X005461Y018213D01*
X005461Y018322D02*
X005901Y018322D01*
X005901Y018431D02*
X005461Y018431D01*
X005461Y018540D02*
X005901Y018540D01*
X005901Y018649D02*
X005461Y018649D01*
X005461Y018758D02*
X005901Y018758D01*
X005901Y018867D02*
X005461Y018867D01*
X005461Y018976D02*
X005901Y018976D01*
X005901Y013885D02*
X005461Y013885D01*
X005461Y015665D01*
X005901Y015665D01*
X005901Y013885D01*
X005901Y013994D02*
X005461Y013994D01*
X005461Y014103D02*
X005901Y014103D01*
X005901Y014212D02*
X005461Y014212D01*
X005461Y014321D02*
X005901Y014321D01*
X005901Y014430D02*
X005461Y014430D01*
X005461Y014539D02*
X005901Y014539D01*
X005901Y014648D02*
X005461Y014648D01*
X005461Y014757D02*
X005901Y014757D01*
X005901Y014866D02*
X005461Y014866D01*
X005461Y014975D02*
X005901Y014975D01*
X005901Y015084D02*
X005461Y015084D01*
X005461Y015193D02*
X005901Y015193D01*
X005901Y015302D02*
X005461Y015302D01*
X005461Y015411D02*
X005901Y015411D01*
X005901Y015520D02*
X005461Y015520D01*
X005461Y015629D02*
X005901Y015629D01*
D34*
X007196Y020976D03*
X005819Y008181D03*
X030031Y020976D03*
X031409Y008181D03*
D35*
X028803Y021505D02*
X028503Y021505D01*
X028503Y022203D01*
X028803Y022203D01*
X028803Y021505D01*
X028803Y021579D02*
X028503Y021579D01*
X028503Y021653D02*
X028803Y021653D01*
X028803Y021727D02*
X028503Y021727D01*
X028503Y021801D02*
X028803Y021801D01*
X028803Y021875D02*
X028503Y021875D01*
X028503Y021949D02*
X028803Y021949D01*
X028803Y022023D02*
X028503Y022023D01*
X028503Y022097D02*
X028803Y022097D01*
X028803Y022171D02*
X028503Y022171D01*
X028016Y021505D02*
X027716Y021505D01*
X027716Y022203D01*
X028016Y022203D01*
X028016Y021505D01*
X028016Y021579D02*
X027716Y021579D01*
X027716Y021653D02*
X028016Y021653D01*
X028016Y021727D02*
X027716Y021727D01*
X027716Y021801D02*
X028016Y021801D01*
X028016Y021875D02*
X027716Y021875D01*
X027716Y021949D02*
X028016Y021949D01*
X028016Y022023D02*
X027716Y022023D01*
X027716Y022097D02*
X028016Y022097D01*
X028016Y022171D02*
X027716Y022171D01*
X027228Y021505D02*
X026928Y021505D01*
X026928Y022203D01*
X027228Y022203D01*
X027228Y021505D01*
X027228Y021579D02*
X026928Y021579D01*
X026928Y021653D02*
X027228Y021653D01*
X027228Y021727D02*
X026928Y021727D01*
X026928Y021801D02*
X027228Y021801D01*
X027228Y021875D02*
X026928Y021875D01*
X026928Y021949D02*
X027228Y021949D01*
X027228Y022023D02*
X026928Y022023D01*
X026928Y022097D02*
X027228Y022097D01*
X027228Y022171D02*
X026928Y022171D01*
X026441Y021505D02*
X026141Y021505D01*
X026141Y022203D01*
X026441Y022203D01*
X026441Y021505D01*
X026441Y021579D02*
X026141Y021579D01*
X026141Y021653D02*
X026441Y021653D01*
X026441Y021727D02*
X026141Y021727D01*
X026141Y021801D02*
X026441Y021801D01*
X026441Y021875D02*
X026141Y021875D01*
X026141Y021949D02*
X026441Y021949D01*
X026441Y022023D02*
X026141Y022023D01*
X026141Y022097D02*
X026441Y022097D01*
X026441Y022171D02*
X026141Y022171D01*
X025654Y021505D02*
X025354Y021505D01*
X025354Y022203D01*
X025654Y022203D01*
X025654Y021505D01*
X025654Y021579D02*
X025354Y021579D01*
X025354Y021653D02*
X025654Y021653D01*
X025654Y021727D02*
X025354Y021727D01*
X025354Y021801D02*
X025654Y021801D01*
X025654Y021875D02*
X025354Y021875D01*
X025354Y021949D02*
X025654Y021949D01*
X025654Y022023D02*
X025354Y022023D01*
X025354Y022097D02*
X025654Y022097D01*
X025654Y022171D02*
X025354Y022171D01*
X025354Y023686D02*
X025654Y023686D01*
X025354Y023686D02*
X025354Y024384D01*
X025654Y024384D01*
X025654Y023686D01*
X025654Y023760D02*
X025354Y023760D01*
X025354Y023834D02*
X025654Y023834D01*
X025654Y023908D02*
X025354Y023908D01*
X025354Y023982D02*
X025654Y023982D01*
X025654Y024056D02*
X025354Y024056D01*
X025354Y024130D02*
X025654Y024130D01*
X025654Y024204D02*
X025354Y024204D01*
X025354Y024278D02*
X025654Y024278D01*
X025654Y024352D02*
X025354Y024352D01*
X026141Y023686D02*
X026441Y023686D01*
X026141Y023686D02*
X026141Y024384D01*
X026441Y024384D01*
X026441Y023686D01*
X026441Y023760D02*
X026141Y023760D01*
X026141Y023834D02*
X026441Y023834D01*
X026441Y023908D02*
X026141Y023908D01*
X026141Y023982D02*
X026441Y023982D01*
X026441Y024056D02*
X026141Y024056D01*
X026141Y024130D02*
X026441Y024130D01*
X026441Y024204D02*
X026141Y024204D01*
X026141Y024278D02*
X026441Y024278D01*
X026441Y024352D02*
X026141Y024352D01*
X026928Y023686D02*
X027228Y023686D01*
X026928Y023686D02*
X026928Y024384D01*
X027228Y024384D01*
X027228Y023686D01*
X027228Y023760D02*
X026928Y023760D01*
X026928Y023834D02*
X027228Y023834D01*
X027228Y023908D02*
X026928Y023908D01*
X026928Y023982D02*
X027228Y023982D01*
X027228Y024056D02*
X026928Y024056D01*
X026928Y024130D02*
X027228Y024130D01*
X027228Y024204D02*
X026928Y024204D01*
X026928Y024278D02*
X027228Y024278D01*
X027228Y024352D02*
X026928Y024352D01*
X027716Y023686D02*
X028016Y023686D01*
X027716Y023686D02*
X027716Y024384D01*
X028016Y024384D01*
X028016Y023686D01*
X028016Y023760D02*
X027716Y023760D01*
X027716Y023834D02*
X028016Y023834D01*
X028016Y023908D02*
X027716Y023908D01*
X027716Y023982D02*
X028016Y023982D01*
X028016Y024056D02*
X027716Y024056D01*
X027716Y024130D02*
X028016Y024130D01*
X028016Y024204D02*
X027716Y024204D01*
X027716Y024278D02*
X028016Y024278D01*
X028016Y024352D02*
X027716Y024352D01*
X028503Y023686D02*
X028803Y023686D01*
X028503Y023686D02*
X028503Y024384D01*
X028803Y024384D01*
X028803Y023686D01*
X028803Y023760D02*
X028503Y023760D01*
X028503Y023834D02*
X028803Y023834D01*
X028803Y023908D02*
X028503Y023908D01*
X028503Y023982D02*
X028803Y023982D01*
X028803Y024056D02*
X028503Y024056D01*
X028503Y024130D02*
X028803Y024130D01*
X028803Y024204D02*
X028503Y024204D01*
X028503Y024278D02*
X028803Y024278D01*
X028803Y024352D02*
X028503Y024352D01*
D36*
X028259Y022944D03*
X025897Y022944D03*
X025996Y018319D03*
X025011Y018319D03*
X024027Y018319D03*
X021074Y018319D03*
X020090Y018319D03*
X019106Y018319D03*
X018122Y018319D03*
X017137Y018319D03*
X016153Y018319D03*
X013200Y018319D03*
X012216Y018319D03*
X011232Y018319D03*
X007689Y017531D03*
X007689Y016448D03*
X007689Y015366D03*
X005819Y016448D03*
X005031Y016448D03*
X012216Y014972D03*
X017137Y014972D03*
X020090Y014972D03*
X019401Y012315D03*
X017826Y012315D03*
X017826Y007984D03*
X018614Y006803D03*
X019401Y007984D03*
X019401Y005622D03*
X018614Y004834D03*
X017826Y005622D03*
X017039Y004834D03*
X015464Y004834D03*
X013889Y004834D03*
X012315Y004834D03*
X010740Y004834D03*
X009165Y004834D03*
X020189Y004834D03*
X021763Y004834D03*
X023338Y004834D03*
X024913Y004834D03*
X026488Y004834D03*
X028063Y004834D03*
X025011Y014972D03*
X029539Y015366D03*
X029539Y016448D03*
X029539Y017531D03*
X031409Y016448D03*
X032196Y016448D03*
D37*
X030031Y013968D03*
X030031Y011429D03*
X025011Y011429D03*
X024815Y014234D03*
X024421Y019500D03*
X024716Y020189D03*
X023437Y019696D03*
X022817Y020267D03*
X022452Y019696D03*
X021468Y020484D03*
X021173Y020189D03*
X022944Y022905D03*
X012511Y020779D03*
X012216Y019500D03*
X011232Y019696D03*
X010612Y020267D03*
X010248Y019696D03*
X009263Y020484D03*
X008968Y020189D03*
X010740Y022905D03*
X012019Y014234D03*
X012216Y011429D03*
X017137Y011429D03*
X016941Y014234D03*
D38*
X014480Y012807D03*
X015366Y011921D03*
X014480Y011035D03*
X013594Y011921D03*
X010838Y011921D03*
X009952Y011035D03*
X009067Y011921D03*
X009952Y012807D03*
X007196Y012511D03*
X006409Y012511D03*
X005622Y012511D03*
X005622Y011724D03*
X006409Y011724D03*
X006409Y010937D03*
X005622Y010937D03*
X004834Y010937D03*
X004834Y010149D03*
X005622Y010149D03*
X006409Y010149D03*
X006409Y009362D03*
X005622Y009362D03*
X004834Y009362D03*
X007196Y009362D03*
X007196Y010149D03*
X007196Y010937D03*
X007196Y011724D03*
X005031Y014283D03*
X005031Y015267D03*
X005031Y015858D03*
X005819Y015858D03*
X005819Y017039D03*
X005031Y017039D03*
X005031Y017630D03*
X005031Y018614D03*
X004834Y021960D03*
X005622Y021960D03*
X006409Y021960D03*
X007196Y022748D03*
X007196Y023535D03*
X007196Y024322D03*
X022748Y012807D03*
X023633Y011921D03*
X022748Y011035D03*
X021862Y011921D03*
X026389Y011921D03*
X027275Y011035D03*
X028161Y011921D03*
X027275Y012807D03*
X030819Y012511D03*
X031606Y012511D03*
X031606Y011724D03*
X031606Y010937D03*
X032393Y010937D03*
X032393Y010149D03*
X031606Y010149D03*
X031606Y009362D03*
X032393Y009362D03*
X030819Y009362D03*
X030819Y011724D03*
X032196Y014283D03*
X032196Y015267D03*
X032196Y015858D03*
X031409Y015858D03*
X031409Y017039D03*
X032196Y017039D03*
X032196Y017630D03*
X032196Y018614D03*
X032393Y021960D03*
X031606Y021960D03*
X030819Y021960D03*
X030031Y022748D03*
X030031Y023535D03*
X030031Y024322D03*
X030819Y007000D03*
X031606Y007000D03*
X032393Y007000D03*
X030031Y006212D03*
X030031Y005425D03*
X030031Y004637D03*
X007196Y004637D03*
X007196Y005425D03*
X007196Y006212D03*
X007196Y007000D03*
X006409Y007000D03*
X005622Y007000D03*
X004834Y007000D03*
X007196Y007787D03*
X007196Y008574D03*
D39*
X018614Y010149D03*
X018614Y015661D03*
D40*
X017630Y015661D03*
X017137Y015759D03*
X016842Y015464D03*
X016842Y016055D03*
X017137Y016350D03*
X016842Y016645D03*
X017137Y016941D03*
X016842Y017236D03*
X017137Y017531D03*
X016842Y017826D03*
X017433Y017826D03*
X018614Y016645D03*
X019598Y015661D03*
X020090Y015759D03*
X020385Y015464D03*
X020385Y016055D03*
X020090Y016350D03*
X020385Y016645D03*
X020090Y016941D03*
X020385Y017236D03*
X020090Y017531D03*
X019795Y017826D03*
X020385Y017826D03*
X018614Y014677D03*
X018614Y011133D03*
X019598Y010149D03*
X018614Y009165D03*
X017630Y010149D03*
X016252Y007196D03*
X015661Y007196D03*
X015070Y007196D03*
X014480Y007196D03*
X013889Y007196D03*
X013299Y007196D03*
X011330Y007196D03*
X010740Y007196D03*
X010149Y007196D03*
X009559Y007196D03*
X008968Y007196D03*
X008378Y007196D03*
X008378Y005425D03*
X008968Y005425D03*
X009559Y005425D03*
X010149Y005425D03*
X010740Y005425D03*
X011330Y005425D03*
X013299Y005425D03*
X013889Y005425D03*
X014480Y005425D03*
X015070Y005425D03*
X015661Y005425D03*
X016252Y005425D03*
X021173Y005425D03*
X021763Y005425D03*
X022354Y005425D03*
X022944Y005425D03*
X023535Y005425D03*
X024126Y005425D03*
X026094Y005425D03*
X026685Y005425D03*
X027275Y005425D03*
X027866Y005425D03*
X028456Y005425D03*
X029047Y005425D03*
X029047Y007196D03*
X028456Y007196D03*
X027866Y007196D03*
X027275Y007196D03*
X026685Y007196D03*
X026094Y007196D03*
X024126Y007196D03*
X023535Y007196D03*
X022944Y007196D03*
X022354Y007196D03*
X021763Y007196D03*
X021173Y007196D03*
X024716Y015464D03*
X025011Y015759D03*
X025307Y015464D03*
X025307Y016055D03*
X025011Y016350D03*
X024716Y016055D03*
X024716Y016645D03*
X025011Y016941D03*
X024716Y017236D03*
X025011Y017531D03*
X024716Y017826D03*
X025307Y017826D03*
X025307Y017236D03*
X025307Y016645D03*
X029637Y017000D03*
X029637Y015897D03*
X012511Y016055D03*
X012216Y016350D03*
X011921Y016055D03*
X012216Y015759D03*
X011921Y015464D03*
X012511Y015464D03*
X012511Y016645D03*
X011921Y016645D03*
X012216Y016941D03*
X011921Y017236D03*
X012216Y017531D03*
X011921Y017826D03*
X012511Y017826D03*
X012511Y017236D03*
X007590Y017000D03*
X007590Y015897D03*
M02*
